<svg width="173" height="52" viewBox="0 0 173 52" fill="none" xmlns="http://www.w3.org/2000/svg">
<path d="M102.693 14.5894H98.3251V26.4877H94.8105V14.5894H95.0983V11.8674H102.693V14.5894Z" fill="url(#paint0_linear_335_298)"/>
<path d="M113.205 20.2808H107.687V23.776H114.212V26.4877H104.183V11.8777H114.233V14.5997H107.687V17.6825H113.205V20.2911V20.2808Z" fill="url(#paint1_linear_335_298)"/>
<path d="M127.418 21.5387C127.366 22.5595 127.099 23.4565 126.596 24.2298C126.092 25.0134 125.393 25.6114 124.489 26.0444C123.585 26.4775 122.557 26.6837 121.396 26.6837C119.484 26.6837 117.974 26.0547 116.874 24.8072C115.775 23.5596 115.22 21.7862 115.22 19.5076V18.7858C115.22 17.3527 115.466 16.1051 115.97 15.0225C116.463 13.9502 117.183 13.115 118.118 12.5376C119.053 11.9499 120.132 11.6613 121.355 11.6613C123.122 11.6613 124.54 12.1252 125.619 13.0635C126.688 14.0017 127.305 15.2802 127.449 16.9196H123.944C123.914 16.0329 123.698 15.3937 123.276 15.0019C122.855 14.6101 122.218 14.4245 121.355 14.4245C120.492 14.4245 119.844 14.7544 119.433 15.404C119.022 16.0638 118.816 17.1052 118.796 18.5487V19.5797C118.796 21.1366 118.991 22.2502 119.382 22.9203C119.772 23.5905 120.44 23.9205 121.396 23.9205C122.208 23.9205 122.824 23.7349 123.246 23.3534C123.677 22.9719 123.903 22.3636 123.924 21.5387H127.418Z" fill="url(#paint2_linear_335_298)"/>
<path d="M141.25 26.4877H137.756V20.3839H132.587V26.4877H129.072V11.8777H132.587V17.6825H137.756V11.8777H141.25V26.4877Z" fill="url(#paint3_linear_335_298)"/>
<path d="M95.8181 35.9013C96.5272 36.4065 97.637 36.8808 99.1682 37.3139C100.699 37.7469 101.748 38.2006 102.323 38.6748C102.899 39.1491 103.186 39.809 103.186 40.6235C103.186 41.4381 102.837 42.1392 102.138 42.6547C101.439 43.1702 100.514 43.4177 99.3635 43.4177C98.0687 43.4177 97.0307 43.1187 96.2497 42.5104C95.4687 41.902 95.0782 41.0772 95.0782 40.0358V42.8609C95.3351 43.294 95.8592 43.6445 96.4964 43.9229C97.3699 44.2941 98.3256 44.4797 99.3635 44.4797C100.884 44.4797 102.118 44.1291 103.042 43.4177C103.978 42.7063 104.44 41.768 104.44 40.6029C104.44 39.8606 104.265 39.2213 103.926 38.6748C103.577 38.1284 103.063 37.6644 102.385 37.2726C101.696 36.8808 100.699 36.4993 99.3635 36.1385C98.0276 35.7776 97.0718 35.3549 96.4655 34.8806C95.8592 34.4063 95.5612 33.7877 95.5612 33.035C95.5612 32.2205 95.9003 31.5606 96.5683 31.0451C97.2363 30.5398 98.1406 30.2821 99.271 30.2821C100.401 30.2821 101.367 30.5914 102.056 31.21C102.744 31.8287 103.094 32.6432 103.094 33.6639H104.358C104.358 32.8288 104.142 32.0658 103.721 31.3956C103.299 30.7254 102.693 30.1893 101.912 29.8078C101.141 29.4263 100.258 29.2407 99.271 29.2407C97.822 29.2407 96.63 29.5913 95.6948 30.3027C95.3865 30.5398 95.1296 30.8079 95.0371 31.0966V35.0455C95.1399 35.3652 95.4379 35.6539 95.7976 35.9116L95.8181 35.9013Z" fill="url(#paint4_linear_335_298)"/>
<path d="M109.053 31.7977C109.845 30.7872 110.913 30.2923 112.259 30.2923C114.674 30.2923 116.041 31.5502 116.349 34.0763H117.613C117.459 32.5606 116.935 31.3749 116.01 30.5192C115.096 29.6634 113.842 29.2303 112.259 29.2303C111.139 29.2303 110.143 29.5087 109.279 30.0655C108.416 30.6223 107.748 31.4059 107.296 32.4266C106.844 33.4473 106.607 34.6124 106.607 35.9322V37.8602C106.607 39.1594 106.844 40.3142 107.306 41.3246C107.769 42.335 108.416 43.1186 109.259 43.6651C110.101 44.2115 111.078 44.4899 112.167 44.4899C113.739 44.4899 114.993 44.0775 115.938 43.2423C116.884 42.4175 117.439 41.2215 117.613 39.6543H116.349C116.195 40.9122 115.784 41.8504 115.116 42.4794C114.448 43.1083 113.462 43.4176 112.157 43.4176C110.852 43.4176 109.783 42.9124 109.012 41.8917C108.231 40.8709 107.851 39.4996 107.851 37.7881V35.9734C107.851 34.2 108.252 32.8081 109.043 31.7977H109.053Z" fill="url(#paint5_linear_335_298)"/>
<path d="M130.357 36.1075H121.91V29.4365H120.656V44.2838H121.91V37.1592H130.357V44.2838H131.621V29.4365H130.357V36.1075Z" fill="url(#paint6_linear_335_298)"/>
<path d="M143.551 30.0552C142.678 29.5087 141.681 29.2303 140.54 29.2303C139.4 29.2303 138.393 29.5087 137.519 30.0758C136.646 30.6326 135.967 31.4368 135.495 32.4782C135.022 33.5195 134.775 34.7155 134.775 36.0765V37.6025C134.775 39.7058 135.31 41.3864 136.368 42.6237C137.427 43.861 138.824 44.4796 140.551 44.4796C141.691 44.4796 142.709 44.2012 143.582 43.6444C144.456 43.0877 145.124 42.2938 145.596 41.2627C146.069 40.2317 146.306 39.0253 146.306 37.6643V35.8909C146.285 34.5609 146.038 33.3958 145.566 32.3957C145.093 31.3852 144.415 30.612 143.551 30.0655V30.0552ZM145.062 37.6231C145.062 39.4378 144.661 40.8503 143.87 41.871C143.079 42.8918 141.969 43.397 140.561 43.397C139.153 43.397 138.064 42.8815 137.252 41.8504C136.44 40.8194 136.029 39.4274 136.029 37.6643V36.1178C136.029 34.2928 136.44 32.8803 137.252 31.8595C138.064 30.8388 139.163 30.3336 140.54 30.3336C141.918 30.3336 143.048 30.8388 143.849 31.8492C144.651 32.8596 145.062 34.2619 145.062 36.0456V37.6128V37.6231Z" fill="url(#paint7_linear_335_298)"/>
<path d="M157.641 30.0552C156.768 29.5087 155.771 29.2303 154.63 29.2303C153.49 29.2303 152.483 29.5087 151.609 30.0758C150.736 30.6326 150.057 31.4368 149.585 32.4782C149.112 33.5195 148.865 34.7155 148.865 36.0765V37.6025C148.865 39.7058 149.4 41.3864 150.458 42.6237C151.517 43.861 152.914 44.4796 154.641 44.4796C155.781 44.4796 156.799 44.2012 157.672 43.6444C158.546 43.0877 159.214 42.2938 159.686 41.2627C160.159 40.2317 160.395 39.0253 160.395 37.6643V35.8909C160.375 34.5609 160.128 33.3958 159.656 32.3957C159.183 31.3852 158.505 30.612 157.641 30.0655V30.0552ZM159.142 37.6231C159.142 39.4378 158.741 40.8503 157.95 41.871C157.158 42.8918 156.048 43.397 154.641 43.397C153.233 43.397 152.143 42.8815 151.332 41.8504C150.52 40.8194 150.109 39.4274 150.109 37.6643V36.1178C150.109 34.2928 150.52 32.8803 151.332 31.8595C152.143 30.8388 153.243 30.3336 154.62 30.3336C155.997 30.3336 157.127 30.8388 157.929 31.8492C158.731 32.8596 159.142 34.2619 159.142 36.0456V37.6128V37.6231Z" fill="url(#paint8_linear_335_298)"/>
<path d="M164.804 29.4365H163.55V44.2838H172.11V43.2217H164.804V29.4365Z" fill="url(#paint9_linear_335_298)"/>
<path d="M87.2782 13.8469C86.8466 13.4448 84.8529 11.7229 81.9961 11.2487V11.4446C83.7739 12.1972 86.4355 14.1975 86.5794 18.8166C86.5794 18.9506 86.6924 19.064 86.8158 19.064C86.9391 19.064 87.0521 18.9609 87.0521 18.8269L87.3501 14.0531C87.3501 13.9706 87.3296 13.8985 87.2679 13.8469H87.2782Z" fill="white"/>
<path d="M87.9466 28.1787C84.1238 32.7153 75.8923 32.7462 75.2449 22.5904C74.7208 14.7235 78.3279 12.2593 80.0235 11.5272V11.3519C77.1872 11.8262 71.7715 13.878 71.7715 22.5698C71.7715 29.7665 77.3002 33.2515 81.0717 33.2515C85.3056 33.2515 87.3917 30.4779 88.3474 28.4777C88.481 28.1993 88.1316 27.9622 87.9363 28.189L87.9466 28.1787Z" fill="white"/>
<path d="M45.2881 32.5812C44.281 32.5399 43.3869 32.1584 43.3869 30.4366V13.5995C43.3869 13.5067 43.3458 13.4242 43.2739 13.3727L40.8075 11.6817C40.6123 11.5477 40.3759 11.7333 40.4273 11.9807C40.489 12.2591 40.5095 12.5788 40.5095 12.9809V30.4469C40.5095 32.1584 39.636 32.5399 38.6289 32.5915C38.4953 32.5915 38.3926 32.7152 38.3926 32.8595V32.9833H45.5244V32.8595C45.5244 32.7152 45.4217 32.6018 45.2881 32.5915V32.5812Z" fill="white"/>
<path d="M70.373 32.5812C69.3659 32.5399 68.4719 32.1584 68.4719 30.4366V13.5995C68.4719 13.5067 68.4308 13.4242 68.3588 13.3727L65.8925 11.6817C65.6973 11.5477 65.4609 11.7333 65.5123 11.9807C65.5739 12.2591 65.5945 12.5788 65.5945 12.9809V30.4469C65.5945 32.1584 64.721 32.5399 63.7139 32.5915C63.5803 32.5915 63.4775 32.7152 63.4775 32.8595V32.9833H70.6094V32.8595C70.6094 32.7152 70.5066 32.6018 70.373 32.5915V32.5812Z" fill="white"/>
<path d="M56.2736 31.6018V11.8674C56.2736 11.7231 56.1605 11.5994 56.0269 11.5994H53.5709C53.427 11.5994 53.3242 11.7231 53.3242 11.8674V30.8491H53.3448V30.9728C53.3448 31.0656 53.3859 31.1481 53.4578 31.1997L55.9858 32.9112C56.1811 33.0452 56.4174 32.8493 56.366 32.6122C56.3044 32.3235 56.2736 32.0142 56.2736 31.6018Z" fill="white"/>
<path d="M46.3891 11.7334V11.6097L46.3788 11.7437C46.3582 11.7746 46.348 11.8159 46.348 11.8468L46.0294 17.1258L45.9883 17.7857C45.9883 17.9403 46.091 18.0744 46.2349 18.0744H46.5843V17.8475C46.5843 17.8475 46.5843 17.8475 46.5843 17.8269C46.9543 14.0326 48.9582 12.4242 50.2838 11.8674V11.5994H46.6049C46.5124 11.5994 46.4404 11.6509 46.3993 11.7231L46.3891 11.7334Z" fill="white"/>
<path d="M62.481 11.7744C62.481 11.7744 62.481 11.7641 62.481 11.7538V11.5373L62.4605 11.6816C62.4194 11.5888 62.3372 11.527 62.2344 11.527H58.6582V11.7538C59.9941 12.29 62.07 13.8262 62.2652 17.5586C62.2652 17.5999 62.2858 17.6411 62.3063 17.672V17.8061H62.6146C62.7585 17.8061 62.8715 17.6824 62.8613 17.5277L62.5324 12.4652L62.4913 11.7538L62.481 11.7744Z" fill="white"/>
<path d="M39.0607 41.6237V44.2116H38.5264V37.8604H40.6844C41.3421 37.8604 41.8662 38.0253 42.2464 38.3656C42.6267 38.7058 42.8219 39.1698 42.8219 39.7575C42.8219 40.3452 42.6369 40.8092 42.2773 41.1391C41.9176 41.469 41.3832 41.6237 40.6844 41.6237H39.071H39.0607ZM39.0607 41.17H40.6844C41.1982 41.17 41.599 41.0463 41.8662 40.7989C42.1437 40.5514 42.2773 40.2112 42.2773 39.7678C42.2773 39.3244 42.1437 38.9739 41.8662 38.7161C41.599 38.4584 41.2085 38.3243 40.7152 38.314H39.0607V41.17Z" fill="white"/>
<path d="M53.4474 42.4279H50.57L49.9226 44.2116H49.3574L51.7518 37.8604H52.2657L54.6601 44.2116H54.1051L53.4474 42.4279ZM50.7345 41.9742H53.2728L52.0087 38.5202L50.7345 41.9742Z" fill="white"/>
<path d="M64.578 41.5618H62.7385V44.2116H62.2041V37.8604H64.2594C64.9376 37.8604 65.4617 38.0253 65.842 38.3553C66.2222 38.6852 66.4072 39.1389 66.4072 39.7266C66.4072 40.1287 66.2838 40.4895 66.0475 40.7989C65.8111 41.1082 65.4926 41.3247 65.0918 41.4484L66.6744 44.1498V44.2013H66.1092L64.578 41.5515V41.5618ZM62.7385 41.1082H64.3724C64.8246 41.1082 65.1843 40.9844 65.4515 40.7267C65.7289 40.4689 65.8625 40.139 65.8625 39.7266C65.8625 39.2832 65.7186 38.9326 65.4412 38.6852C65.1534 38.4377 64.7629 38.314 64.2491 38.314H62.7385V41.1082Z" fill="white"/>
<path d="M75.1305 44.2116H74.5967V37.8604H75.1305V44.2116Z" fill="white"/>
<path d="M87.0522 42.6444C87.0522 42.2938 86.9289 42.0154 86.6822 41.8092C86.4356 41.603 85.9834 41.4071 85.3257 41.2215C84.668 41.0359 84.1953 40.84 83.887 40.6132C83.4554 40.3039 83.2396 39.9018 83.2396 39.3966C83.2396 38.8914 83.4349 38.5202 83.8357 38.2109C84.2364 37.9119 84.74 37.7572 85.3668 37.7572C85.7882 37.7572 86.1581 37.8397 86.4973 38.0047C86.8261 38.1696 87.083 38.3965 87.268 38.6851C87.453 38.9738 87.5455 39.3038 87.5455 39.6543H87.0111C87.0111 39.2213 86.8672 38.8707 86.5692 38.6027C86.2712 38.3346 85.8807 38.2109 85.3771 38.2109C84.8736 38.2109 84.5036 38.314 84.2262 38.5408C83.9384 38.7573 83.7946 39.0357 83.7946 39.3863C83.7946 39.7059 83.9281 39.974 84.1851 40.1802C84.442 40.3864 84.853 40.5617 85.4285 40.7163C86.004 40.871 86.4253 41.0359 86.7233 41.2009C87.0214 41.3659 87.2372 41.5721 87.381 41.7989C87.5249 42.0258 87.6071 42.3041 87.6071 42.6238C87.6071 43.1187 87.4119 43.5208 87.0111 43.8301C86.6103 44.1291 86.0862 44.2838 85.4388 44.2838C84.9969 44.2838 84.5858 44.2013 84.2056 44.0466C83.8254 43.892 83.5479 43.6651 83.3629 43.3764C83.1677 43.0877 83.0752 42.7578 83.0752 42.3866H83.6096C83.6096 42.83 83.774 43.1908 84.1131 43.4486C84.442 43.7064 84.8941 43.8404 85.4388 43.8404C85.9321 43.8404 86.3226 43.727 86.6206 43.5105C86.9186 43.294 87.0727 43.0053 87.0727 42.6444H87.0522Z" fill="white"/>
<path d="M0 7.33093V26.261C0 29.8285 0.92488 33.1278 2.32248 36.0973L31.004 7.33093H0Z" fill="white"/>
<path d="M30.994 11.2487L3.68945 38.654C8.26247 46.3456 15.4766 51.1503 15.4766 51.1503H15.528C15.528 51.1503 31.0043 40.8398 31.0043 26.2608V11.2487H30.994Z" fill="white"/>
<path d="M95.3962 7.24829H94.8008V50.8411H95.3962V7.24829Z" fill="white"/>
<path d="M163.252 0H159.953V3.30968H163.252V0Z" fill="url(#paint10_linear_335_298)"/>
<path d="M150.139 3.26843H146.84V6.57811H150.139V3.26843Z" fill="url(#paint11_linear_335_298)"/>
<path d="M150.139 7.45447H146.84V10.7642H150.139V7.45447Z" fill="url(#paint12_linear_335_298)"/>
<path d="M150.19 11.5374H146.892V14.847H150.19V11.5374Z" fill="url(#paint13_linear_335_298)"/>
<path d="M150.19 15.6204H146.892V18.93H150.19V15.6204Z" fill="url(#paint14_linear_335_298)"/>
<path d="M154.527 3.26843H151.229V6.57811H154.527V3.26843Z" fill="url(#paint15_linear_335_298)"/>
<path d="M154.527 7.45447H151.229V10.7642H154.527V7.45447Z" fill="url(#paint16_linear_335_298)"/>
<path d="M154.589 15.6204H151.29V18.93H154.589V15.6204Z" fill="url(#paint17_linear_335_298)"/>
<path d="M158.874 7.45447H155.575V10.7642H158.874V7.45447Z" fill="url(#paint18_linear_335_298)"/>
<path d="M163.252 7.45447H159.953V10.7642H163.252V7.45447Z" fill="url(#paint19_linear_335_298)"/>
<path d="M163.252 11.5477H159.953V14.8574H163.252V11.5477Z" fill="url(#paint20_linear_335_298)"/>
<path d="M158.926 15.6204H155.627V18.93H158.926V15.6204Z" fill="url(#paint21_linear_335_298)"/>
<path d="M163.405 15.6204H160.106V18.93H163.405V15.6204Z" fill="url(#paint22_linear_335_298)"/>
<path d="M158.926 19.7549H155.627V23.0646H158.926V19.7549Z" fill="url(#paint23_linear_335_298)"/>
<path d="M145.803 7.45447H142.504V10.7642H145.803V7.45447Z" fill="url(#paint24_linear_335_298)"/>
<path d="M138.937 5.77393H135.639V9.0836H138.937V5.77393Z" fill="url(#paint25_linear_335_298)"/>
<path d="M145.853 11.5374H142.555V14.847H145.853V11.5374Z" fill="url(#paint26_linear_335_298)"/>
<defs>
<linearGradient id="paint0_linear_335_298" x1="103.268" y1="19.1879" x2="143.5" y2="19.1879" gradientUnits="userSpaceOnUse">
<stop offset="0.03" stop-color="#0E8FCF"/>
<stop offset="0.22" stop-color="#2073B8"/>
<stop offset="0.51" stop-color="#394D9A"/>
<stop offset="0.97" stop-color="#E5388B"/>
</linearGradient>
<linearGradient id="paint1_linear_335_298" x1="103.268" y1="-663.605" x2="143.49" y2="-663.605" gradientUnits="userSpaceOnUse">
<stop offset="0.03" stop-color="#0E8FCF"/>
<stop offset="0.22" stop-color="#2073B8"/>
<stop offset="0.51" stop-color="#394D9A"/>
<stop offset="0.97" stop-color="#E5388B"/>
</linearGradient>
<linearGradient id="paint2_linear_335_298" x1="103.268" y1="19.1776" x2="143.5" y2="19.1776" gradientUnits="userSpaceOnUse">
<stop offset="0.03" stop-color="#0E8FCF"/>
<stop offset="0.22" stop-color="#2073B8"/>
<stop offset="0.51" stop-color="#394D9A"/>
<stop offset="0.97" stop-color="#E5388B"/>
</linearGradient>
<linearGradient id="paint3_linear_335_298" x1="103.268" y1="-663.605" x2="143.5" y2="-663.605" gradientUnits="userSpaceOnUse">
<stop offset="0.03" stop-color="#0E8FCF"/>
<stop offset="0.22" stop-color="#2073B8"/>
<stop offset="0.51" stop-color="#394D9A"/>
<stop offset="0.97" stop-color="#E5388B"/>
</linearGradient>
<linearGradient id="paint4_linear_335_298" x1="721.787" y1="36.8602" x2="143.501" y2="36.8602" gradientUnits="userSpaceOnUse">
<stop offset="0.03" stop-color="#0E8FCF"/>
<stop offset="0.22" stop-color="#2073B8"/>
<stop offset="0.51" stop-color="#394D9A"/>
<stop offset="0.97" stop-color="#E5388B"/>
</linearGradient>
<linearGradient id="paint5_linear_335_298" x1="103.268" y1="36.8601" x2="143.5" y2="36.8601" gradientUnits="userSpaceOnUse">
<stop offset="0.03" stop-color="#0E8FCF"/>
<stop offset="0.22" stop-color="#2073B8"/>
<stop offset="0.51" stop-color="#394D9A"/>
<stop offset="0.97" stop-color="#E5388B"/>
</linearGradient>
<linearGradient id="paint6_linear_335_298" x1="103.269" y1="36.8601" x2="143.501" y2="36.8601" gradientUnits="userSpaceOnUse">
<stop offset="0.03" stop-color="#0E8FCF"/>
<stop offset="0.22" stop-color="#2073B8"/>
<stop offset="0.51" stop-color="#394D9A"/>
<stop offset="0.97" stop-color="#E5388B"/>
</linearGradient>
<linearGradient id="paint7_linear_335_298" x1="103.268" y1="36.8601" x2="143.5" y2="36.8601" gradientUnits="userSpaceOnUse">
<stop offset="0.03" stop-color="#0E8FCF"/>
<stop offset="0.22" stop-color="#2073B8"/>
<stop offset="0.51" stop-color="#394D9A"/>
<stop offset="0.97" stop-color="#E5388B"/>
</linearGradient>
<linearGradient id="paint8_linear_335_298" x1="721.788" y1="36.8601" x2="143.501" y2="36.8601" gradientUnits="userSpaceOnUse">
<stop offset="0.03" stop-color="#0E8FCF"/>
<stop offset="0.22" stop-color="#2073B8"/>
<stop offset="0.51" stop-color="#394D9A"/>
<stop offset="0.97" stop-color="#E5388B"/>
</linearGradient>
<linearGradient id="paint9_linear_335_298" x1="103.268" y1="36.8601" x2="143.5" y2="36.8601" gradientUnits="userSpaceOnUse">
<stop offset="0.03" stop-color="#0E8FCF"/>
<stop offset="0.22" stop-color="#2073B8"/>
<stop offset="0.51" stop-color="#394D9A"/>
<stop offset="0.97" stop-color="#E5388B"/>
</linearGradient>
<linearGradient id="paint10_linear_335_298" x1="110.647" y1="1.65999" x2="145.443" y2="1.65999" gradientUnits="userSpaceOnUse">
<stop offset="0.03" stop-color="#0E8FCF"/>
<stop offset="0.22" stop-color="#2073B8"/>
<stop offset="0.51" stop-color="#394D9A"/>
<stop offset="0.97" stop-color="#E5388B"/>
</linearGradient>
<linearGradient id="paint11_linear_335_298" x1="110.646" y1="4.92843" x2="145.442" y2="4.92843" gradientUnits="userSpaceOnUse">
<stop offset="0.03" stop-color="#0E8FCF"/>
<stop offset="0.22" stop-color="#2073B8"/>
<stop offset="0.51" stop-color="#394D9A"/>
<stop offset="0.97" stop-color="#E5388B"/>
</linearGradient>
<linearGradient id="paint12_linear_335_298" x1="110.646" y1="9.11446" x2="145.442" y2="9.11446" gradientUnits="userSpaceOnUse">
<stop offset="0.03" stop-color="#0E8FCF"/>
<stop offset="0.22" stop-color="#2073B8"/>
<stop offset="0.51" stop-color="#394D9A"/>
<stop offset="0.97" stop-color="#E5388B"/>
</linearGradient>
<linearGradient id="paint13_linear_335_298" x1="110.647" y1="13.1973" x2="145.443" y2="13.1973" gradientUnits="userSpaceOnUse">
<stop offset="0.03" stop-color="#0E8FCF"/>
<stop offset="0.22" stop-color="#2073B8"/>
<stop offset="0.51" stop-color="#394D9A"/>
<stop offset="0.97" stop-color="#E5388B"/>
</linearGradient>
<linearGradient id="paint14_linear_335_298" x1="110.647" y1="17.2804" x2="145.443" y2="17.2804" gradientUnits="userSpaceOnUse">
<stop offset="0.03" stop-color="#0E8FCF"/>
<stop offset="0.22" stop-color="#2073B8"/>
<stop offset="0.51" stop-color="#394D9A"/>
<stop offset="0.97" stop-color="#E5388B"/>
</linearGradient>
<linearGradient id="paint15_linear_335_298" x1="110.647" y1="4.92843" x2="145.443" y2="4.92843" gradientUnits="userSpaceOnUse">
<stop offset="0.03" stop-color="#0E8FCF"/>
<stop offset="0.22" stop-color="#2073B8"/>
<stop offset="0.51" stop-color="#394D9A"/>
<stop offset="0.97" stop-color="#E5388B"/>
</linearGradient>
<linearGradient id="paint16_linear_335_298" x1="110.647" y1="9.11446" x2="145.443" y2="9.11446" gradientUnits="userSpaceOnUse">
<stop offset="0.03" stop-color="#0E8FCF"/>
<stop offset="0.22" stop-color="#2073B8"/>
<stop offset="0.51" stop-color="#394D9A"/>
<stop offset="0.97" stop-color="#E5388B"/>
</linearGradient>
<linearGradient id="paint17_linear_335_298" x1="110.647" y1="17.2804" x2="145.443" y2="17.2804" gradientUnits="userSpaceOnUse">
<stop offset="0.03" stop-color="#0E8FCF"/>
<stop offset="0.22" stop-color="#2073B8"/>
<stop offset="0.51" stop-color="#394D9A"/>
<stop offset="0.97" stop-color="#E5388B"/>
</linearGradient>
<linearGradient id="paint18_linear_335_298" x1="110.646" y1="9.11446" x2="145.443" y2="9.11446" gradientUnits="userSpaceOnUse">
<stop offset="0.03" stop-color="#0E8FCF"/>
<stop offset="0.22" stop-color="#2073B8"/>
<stop offset="0.51" stop-color="#394D9A"/>
<stop offset="0.97" stop-color="#E5388B"/>
</linearGradient>
<linearGradient id="paint19_linear_335_298" x1="110.647" y1="9.11446" x2="145.443" y2="9.11446" gradientUnits="userSpaceOnUse">
<stop offset="0.03" stop-color="#0E8FCF"/>
<stop offset="0.22" stop-color="#2073B8"/>
<stop offset="0.51" stop-color="#394D9A"/>
<stop offset="0.97" stop-color="#E5388B"/>
</linearGradient>
<linearGradient id="paint20_linear_335_298" x1="110.647" y1="13.2077" x2="145.443" y2="13.2077" gradientUnits="userSpaceOnUse">
<stop offset="0.03" stop-color="#0E8FCF"/>
<stop offset="0.22" stop-color="#2073B8"/>
<stop offset="0.51" stop-color="#394D9A"/>
<stop offset="0.97" stop-color="#E5388B"/>
</linearGradient>
<linearGradient id="paint21_linear_335_298" x1="110.647" y1="17.2804" x2="145.443" y2="17.2804" gradientUnits="userSpaceOnUse">
<stop offset="0.03" stop-color="#0E8FCF"/>
<stop offset="0.22" stop-color="#2073B8"/>
<stop offset="0.51" stop-color="#394D9A"/>
<stop offset="0.97" stop-color="#E5388B"/>
</linearGradient>
<linearGradient id="paint22_linear_335_298" x1="110.646" y1="17.2804" x2="145.442" y2="17.2804" gradientUnits="userSpaceOnUse">
<stop offset="0.03" stop-color="#0E8FCF"/>
<stop offset="0.22" stop-color="#2073B8"/>
<stop offset="0.51" stop-color="#394D9A"/>
<stop offset="0.97" stop-color="#E5388B"/>
</linearGradient>
<linearGradient id="paint23_linear_335_298" x1="110.647" y1="21.4149" x2="145.443" y2="21.4149" gradientUnits="userSpaceOnUse">
<stop offset="0.03" stop-color="#0E8FCF"/>
<stop offset="0.22" stop-color="#2073B8"/>
<stop offset="0.51" stop-color="#394D9A"/>
<stop offset="0.97" stop-color="#E5388B"/>
</linearGradient>
<linearGradient id="paint24_linear_335_298" x1="110.647" y1="9.11446" x2="145.443" y2="9.11446" gradientUnits="userSpaceOnUse">
<stop offset="0.03" stop-color="#0E8FCF"/>
<stop offset="0.22" stop-color="#2073B8"/>
<stop offset="0.51" stop-color="#394D9A"/>
<stop offset="0.97" stop-color="#E5388B"/>
</linearGradient>
<linearGradient id="paint25_linear_335_298" x1="110.646" y1="7.43392" x2="145.442" y2="7.43392" gradientUnits="userSpaceOnUse">
<stop offset="0.03" stop-color="#0E8FCF"/>
<stop offset="0.22" stop-color="#2073B8"/>
<stop offset="0.51" stop-color="#394D9A"/>
<stop offset="0.97" stop-color="#E5388B"/>
</linearGradient>
<linearGradient id="paint26_linear_335_298" x1="110.646" y1="13.1973" x2="145.442" y2="13.1973" gradientUnits="userSpaceOnUse">
<stop offset="0.03" stop-color="#0E8FCF"/>
<stop offset="0.22" stop-color="#2073B8"/>
<stop offset="0.51" stop-color="#394D9A"/>
<stop offset="0.97" stop-color="#E5388B"/>
</linearGradient>
</defs>
</svg>
