<svg width="173" height="51" viewBox="0 0 173 51" fill="none" xmlns="http://www.w3.org/2000/svg">
<path d="M102.754 14.547H98.3809V26.4056H94.873V14.547H95.1692V11.8358H102.766V14.547H102.754Z" fill="url(#paint0_linear_335_31)"/>
<path d="M113.267 20.22H107.743V23.7058H114.269V26.4056H104.235V11.8358H114.292V14.547H107.755V17.6227H113.278V20.22H113.267Z" fill="url(#paint1_linear_335_31)"/>
<path d="M127.479 21.4732C127.433 22.487 127.16 23.387 126.659 24.1616C126.158 24.9362 125.452 25.54 124.552 25.9729C123.652 26.3944 122.616 26.6108 121.454 26.6108C119.541 26.6108 118.037 25.9842 116.933 24.7426C115.828 23.5009 115.281 21.7352 115.281 19.4569V18.7392C115.281 17.3153 115.532 16.0622 116.022 14.9914C116.523 13.9206 117.229 13.089 118.163 12.508C119.097 11.9271 120.179 11.6309 121.409 11.6309C123.174 11.6309 124.598 12.0979 125.668 13.032C126.739 13.9661 127.354 15.242 127.502 16.8824H124.005C123.983 15.9938 123.755 15.3559 123.333 14.9686C122.912 14.5813 122.274 14.3876 121.409 14.3876C120.543 14.3876 119.894 14.718 119.484 15.3673C119.074 16.0166 118.869 17.0647 118.846 18.5V19.5366C118.846 21.0859 119.04 22.2023 119.427 22.863C119.814 23.5351 120.486 23.8654 121.443 23.8654C122.251 23.8654 122.866 23.6718 123.299 23.2959C123.721 22.9199 123.948 22.3162 123.983 21.4846H127.479V21.4732Z" fill="url(#paint2_linear_335_31)"/>
<path d="M141.318 26.4056H137.821V20.3225H132.65V26.4056H129.143V11.8358H132.65V17.6227H137.821V11.8358H141.318V26.4056Z" fill="url(#paint3_linear_335_31)"/>
<path d="M95.876 35.7924C96.5822 36.305 97.6983 36.7721 99.2244 37.205C100.751 37.6379 101.81 38.0935 102.379 38.572C102.96 39.0504 103.245 39.6997 103.245 40.5199C103.245 41.3401 102.892 42.035 102.197 42.5476C101.502 43.0602 100.58 43.3109 99.418 43.3109C98.1197 43.3109 97.0833 43.0147 96.3088 42.4109C95.5344 41.8072 95.1357 40.987 95.1357 39.9389V42.7527C95.3977 43.1855 95.9102 43.5387 96.548 43.8121C97.4136 44.188 98.3703 44.3703 99.418 44.3703C100.944 44.3703 102.174 44.0171 103.097 43.3109C104.031 42.6046 104.498 41.6705 104.498 40.5085C104.498 39.7681 104.327 39.1301 103.985 38.5833C103.643 38.0365 103.12 37.5809 102.436 37.1822C101.753 36.7949 100.751 36.4189 99.418 36.0544C98.0855 35.6899 97.1288 35.2684 96.5252 34.8014C95.9216 34.3229 95.6255 33.7077 95.6255 32.9559C95.6255 32.1471 95.9558 31.4864 96.6277 30.9738C97.2997 30.4726 98.1994 30.2106 99.3269 30.2106C100.454 30.2106 101.423 30.5181 102.106 31.1333C102.801 31.7484 103.142 32.5572 103.142 33.5711H104.406C104.406 32.7395 104.19 31.9876 103.769 31.3041C103.347 30.6207 102.744 30.0966 101.969 29.7207C101.195 29.3448 100.318 29.1511 99.3269 29.1511C97.8805 29.1511 96.6847 29.5043 95.7508 30.2106C95.4432 30.4498 95.1813 30.7118 95.1016 30.9966V34.9381C95.2041 35.257 95.5002 35.5418 95.8646 35.8038H95.876V35.7924Z" fill="url(#paint4_linear_335_31)"/>
<path d="M109.12 31.7029C109.917 30.7004 110.988 30.1992 112.321 30.1992C114.735 30.1992 116.102 31.4522 116.421 33.9698H117.685C117.537 32.4547 117.001 31.2813 116.079 30.427C115.156 29.5726 113.915 29.1511 112.321 29.1511C111.193 29.1511 110.202 29.4245 109.337 29.9827C108.471 30.5295 107.81 31.3155 107.355 32.3408C106.899 33.366 106.66 34.5279 106.66 35.838V37.7631C106.66 39.0618 106.899 40.2123 107.366 41.2148C107.833 42.2173 108.482 43.0033 109.325 43.5501C110.168 44.0969 111.136 44.3703 112.241 44.3703C113.813 44.3703 115.065 43.9602 116.011 43.1286C116.956 42.297 117.514 41.1123 117.685 39.5516H116.421C116.261 40.8047 115.851 41.7502 115.191 42.3768C114.53 43.0033 113.539 43.3222 112.229 43.3222C110.92 43.3222 109.86 42.8096 109.086 41.7958C108.312 40.7819 107.924 39.4149 107.924 37.7062V35.8949C107.924 34.1293 108.323 32.7395 109.12 31.737V31.7029Z" fill="url(#paint5_linear_335_31)"/>
<path d="M130.417 35.986H121.967V29.3447H120.714V44.1424H121.967V37.0454H130.417V44.1424H131.682V29.3447H130.417V35.986Z" fill="url(#paint6_linear_335_31)"/>
<path d="M143.618 29.9598C142.752 29.413 141.739 29.1396 140.6 29.1396C139.461 29.1396 138.459 29.4244 137.582 29.9826C136.705 30.5408 136.033 31.3382 135.554 32.3862C135.076 33.4229 134.837 34.619 134.837 35.9746V37.5011C134.837 39.5971 135.372 41.2717 136.431 42.5019C137.491 43.7322 138.891 44.3588 140.623 44.3588C141.773 44.3588 142.775 44.0854 143.652 43.5272C144.529 42.969 145.201 42.183 145.668 41.1463C146.135 40.1211 146.374 38.925 146.374 37.558V35.7923C146.351 34.4709 146.112 33.309 145.634 32.3065C145.155 31.304 144.483 30.5294 143.618 29.9826V29.9598ZM145.121 37.5011C145.121 39.3123 144.723 40.7249 143.937 41.7387C143.14 42.7526 142.035 43.2538 140.623 43.2538C139.21 43.2538 138.128 42.7412 137.308 41.7159C136.5 40.6907 136.09 39.3009 136.09 37.5466V35.9974C136.09 34.1861 136.5 32.7621 137.308 31.7483C138.128 30.7344 139.222 30.2332 140.6 30.2332C141.978 30.2332 143.105 30.7344 143.914 31.7483C144.723 32.7621 145.121 34.1519 145.121 35.9404V37.5011Z" fill="url(#paint7_linear_335_31)"/>
<path d="M157.707 29.9598C156.841 29.413 155.828 29.1396 154.689 29.1396C153.55 29.1396 152.548 29.4244 151.671 29.9826C150.794 30.5408 150.122 31.3382 149.643 32.3862C149.165 33.4229 148.926 34.619 148.926 35.9746V37.5011C148.926 39.5971 149.461 41.2717 150.52 42.5019C151.579 43.7322 152.98 44.3588 154.711 44.3588C155.862 44.3588 156.864 44.0854 157.741 43.5272C158.618 42.969 159.29 42.183 159.757 41.1463C160.224 40.1211 160.463 38.925 160.463 37.558V35.7923C160.44 34.4709 160.201 33.309 159.723 32.3065C159.244 31.304 158.572 30.5294 157.707 29.9826V29.9598ZM159.21 37.5011C159.21 39.3123 158.812 40.7249 158.026 41.7387C157.228 42.7526 156.124 43.2538 154.711 43.2538C153.299 43.2538 152.217 42.7412 151.397 41.7159C150.589 40.6907 150.179 39.3009 150.179 37.5466V35.9974C150.179 34.1861 150.589 32.7621 151.397 31.7483C152.217 30.7344 153.311 30.2332 154.689 30.2332C156.067 30.2332 157.194 30.7344 158.003 31.7483C158.812 32.7621 159.21 34.1519 159.21 35.9404V37.5011Z" fill="url(#paint8_linear_335_31)"/>
<path d="M164.871 29.3447H163.606V44.1424H172.171V43.083H164.871V29.3447Z" fill="url(#paint9_linear_335_31)"/>
<path d="M87.3451 13.8065C86.9123 13.4077 84.9192 11.6876 82.0605 11.2206V11.4143C83.8372 12.1661 86.5023 14.1596 86.639 18.7618C86.639 18.8985 86.7529 19.0124 86.8781 19.0124C87.0034 19.0124 87.1059 18.9099 87.1173 18.7732L87.4134 14.0115C87.4134 13.9318 87.3907 13.852 87.3337 13.8065H87.3451Z" fill="#231932"/>
<path d="M88.0046 28.0917C84.1892 32.6141 75.9549 32.6369 75.3057 22.5212C74.7818 14.6724 78.3922 12.2232 80.0778 11.4828V11.3119C77.2419 11.7789 71.832 13.8295 71.832 22.4871C71.832 29.6524 77.3558 33.1381 81.1369 33.1381C85.3737 33.1381 87.4579 30.3814 88.4146 28.3765C88.5513 28.1031 88.1982 27.8639 88.0046 28.0917Z" fill="#231932"/>
<path d="M45.3533 32.4888C44.3511 32.4432 43.4513 32.0673 43.4513 30.3585V13.5674C43.4513 13.4762 43.4058 13.3965 43.3374 13.3509L40.866 11.665C40.6724 11.5283 40.4332 11.7219 40.4902 11.9611C40.5585 12.2459 40.5813 12.5535 40.5813 12.9636V30.3699C40.5813 32.0787 39.7043 32.4546 38.7021 32.5001C38.5654 32.5001 38.4629 32.6255 38.4629 32.7622V32.8875H45.5925V32.7622C45.5925 32.6255 45.49 32.5001 45.3533 32.5001V32.4888Z" fill="#231932"/>
<path d="M70.4314 32.4888C69.4292 32.4432 68.5294 32.0673 68.5294 30.3585V13.5674C68.5294 13.4762 68.4839 13.3965 68.4156 13.3509L65.9441 11.665C65.7505 11.5283 65.5113 11.7219 65.5683 11.9611C65.6366 12.2459 65.6594 12.5535 65.6594 12.9636V30.3699C65.6594 32.0787 64.7824 32.4546 63.7802 32.5001C63.6435 32.5001 63.541 32.6255 63.541 32.7622V32.8875H70.6706V32.7622C70.6706 32.6255 70.5681 32.5001 70.4314 32.5001V32.4888Z" fill="#231932"/>
<path d="M56.3323 31.509V11.8357C56.3323 11.6877 56.2184 11.5737 56.0817 11.5737H53.6217C53.485 11.5737 53.3711 11.6877 53.3711 11.8357V30.7571H53.3939V30.8825C53.3939 30.9736 53.4394 31.0533 53.5078 31.1103L56.0362 32.8076C56.2298 32.9329 56.4689 32.7507 56.412 32.5114C56.3437 32.2267 56.3209 31.9077 56.3209 31.4976L56.3323 31.509Z" fill="#231932"/>
<path d="M46.4461 11.6877V11.5624V11.6991C46.4461 11.6991 46.412 11.7675 46.4006 11.8016L46.0817 17.0645L46.0361 17.7139C46.0361 17.8619 46.1386 17.9986 46.2867 17.9986H46.6398V17.7708C47.0156 13.9774 49.0201 12.3712 50.3412 11.8244V11.5624H46.6625C46.5714 11.5624 46.5031 11.608 46.4575 11.6877H46.4461Z" fill="#231932"/>
<path d="M62.54 11.7333V11.5055L62.5172 11.6536C62.483 11.5625 62.3919 11.5055 62.3008 11.5055H58.7246V11.7333C60.0685 12.2687 62.1413 13.8066 62.335 17.5202C62.335 17.5658 62.3463 17.6 62.3691 17.6342V17.7709H62.6766C62.8133 17.7709 62.9272 17.6456 62.9158 17.4975L62.5855 12.451L62.54 11.7447V11.7333Z" fill="#231932"/>
<path d="M39.1115 41.4879V44.0623H38.5762V37.7286H40.7287C41.3893 37.7286 41.9018 37.8995 42.289 38.2299C42.6649 38.5716 42.8585 39.0273 42.8585 39.6196C42.8585 40.212 42.6763 40.6677 42.3118 40.998C41.9474 41.3284 41.4121 41.4879 40.7173 41.4879H39.1115ZM39.1115 41.0436H40.7287C41.2526 41.0436 41.6398 40.9183 41.9132 40.6677C42.1865 40.4171 42.3232 40.0753 42.3232 39.631C42.3232 39.1868 42.1865 38.845 41.9132 38.583C41.6398 38.321 41.2526 38.1957 40.7629 38.1843H39.1115V41.0322V41.0436Z" fill="#231932"/>
<path d="M53.506 42.2966H50.636L49.9868 44.0737H49.4287L51.8204 37.74H52.3329L54.7246 44.0737H54.1666L53.506 42.2966ZM50.7954 41.841H53.3352L52.071 38.3893L50.8068 41.841H50.7954Z" fill="#231932"/>
<path d="M64.6336 41.4308H62.7999V44.0737H62.2646V37.74H64.3261C64.9981 37.74 65.5333 37.8995 65.9092 38.2298C66.285 38.5602 66.4786 39.0159 66.4786 39.5968C66.4786 40.0069 66.3647 40.3601 66.1256 40.6676C65.8864 40.9752 65.5675 41.1916 65.1689 41.3056L66.752 44.0054V44.0623H66.1825L64.6564 41.4195H64.6336V41.4308ZM62.7886 40.9752H64.4286C64.8728 40.9752 65.2372 40.8499 65.5106 40.5879C65.7839 40.3373 65.9206 40.0069 65.9206 39.5968C65.9206 39.1526 65.7839 38.7994 65.4992 38.5602C65.2144 38.3096 64.8158 38.1843 64.3033 38.1843H62.7999V40.9752H62.7886Z" fill="#231932"/>
<path d="M75.1915 44.0737H74.6562V37.74H75.1915V44.0737Z" fill="#231932"/>
<path d="M87.1167 42.5132C87.1167 42.1601 86.9914 41.8867 86.7523 41.6816C86.5017 41.4766 86.0575 41.283 85.397 41.1007C84.7478 40.9184 84.2694 40.7134 83.9619 40.4969C83.5291 40.1894 83.3128 39.7907 83.3128 39.2894C83.3128 38.7882 83.5064 38.4123 83.9164 38.1047C84.315 37.7971 84.8275 37.649 85.4425 37.649C85.8639 37.649 86.2398 37.7288 86.57 37.8883C86.9003 38.0477 87.1623 38.2756 87.3445 38.5718C87.5267 38.8566 87.6178 39.1869 87.6178 39.54H87.0825C87.0825 39.1071 86.9345 38.754 86.6384 38.492C86.3423 38.23 85.9436 38.0933 85.4425 38.0933C84.9414 38.0933 84.5769 38.1958 84.2808 38.4123C83.9961 38.6287 83.848 38.9135 83.848 39.2552C83.848 39.5742 83.9733 39.8362 84.2353 40.0412C84.4972 40.2463 84.9072 40.4286 85.4767 40.5767C86.0461 40.7247 86.4789 40.8956 86.7637 41.0551C87.0484 41.2146 87.2762 41.4196 87.4242 41.6475C87.5723 41.8753 87.6406 42.1487 87.6406 42.4677C87.6406 42.9689 87.447 43.3676 87.0484 43.6638C86.6498 43.96 86.1259 44.1195 85.4767 44.1195C85.0325 44.1195 84.6225 44.0397 84.2467 43.8802C83.8708 43.7208 83.5975 43.4929 83.4039 43.2081C83.2103 42.9233 83.1191 42.593 83.1191 42.217H83.6544C83.6544 42.6613 83.8253 43.0145 84.1555 43.2765C84.4858 43.5385 84.93 43.6638 85.4881 43.6638C85.9778 43.6638 86.3764 43.5499 86.6725 43.3334C86.9687 43.117 87.1167 42.8322 87.1167 42.4677V42.5132Z" fill="#231932"/>
<path d="M0.0585938 7.31348V26.1893C0.0585938 29.7435 0.992511 33.0356 2.38198 35.9974L31.0598 7.31348H0.0585938Z" fill="#231932"/>
<path d="M31.0592 11.2206L3.74805 38.5376C8.32647 46.2041 15.5358 51 15.5358 51H15.5927C15.5927 51 31.0705 40.7248 31.0705 26.1891V11.2206H31.0592Z" fill="#231932"/>
<path d="M95.4545 7.22217H94.8623V50.681H95.4545V7.22217Z" fill="#231932"/>
<path d="M163.32 0H160.018V3.30355H163.32V0Z" fill="url(#paint10_linear_335_31)"/>
<path d="M150.201 3.25793H146.898V6.56148H150.201V3.25793Z" fill="url(#paint11_linear_335_31)"/>
<path d="M150.201 7.42737H146.898V10.7309H150.201V7.42737Z" fill="url(#paint12_linear_335_31)"/>
<path d="M150.259 11.5055H146.956V14.809H150.259V11.5055Z" fill="url(#paint13_linear_335_31)"/>
<path d="M150.259 15.5723H146.956V18.8758H150.259V15.5723Z" fill="url(#paint14_linear_335_31)"/>
<path d="M154.598 3.25793H151.295V6.56148H154.598V3.25793Z" fill="url(#paint15_linear_335_31)"/>
<path d="M154.598 7.42737H151.295V10.7309H154.598V7.42737Z" fill="url(#paint16_linear_335_31)"/>
<path d="M154.653 15.5723H151.351V18.8758H154.653V15.5723Z" fill="url(#paint17_linear_335_31)"/>
<path d="M158.937 7.42737H155.634V10.7309H158.937V7.42737Z" fill="url(#paint18_linear_335_31)"/>
<path d="M163.32 7.42737H160.018V10.7309H163.32V7.42737Z" fill="url(#paint19_linear_335_31)"/>
<path d="M163.32 11.5168H160.018V14.8204H163.32V11.5168Z" fill="url(#paint20_linear_335_31)"/>
<path d="M158.994 15.5723H155.691V18.8758H158.994V15.5723Z" fill="url(#paint21_linear_335_31)"/>
<path d="M163.481 15.5723H160.178V18.8758H163.481V15.5723Z" fill="url(#paint22_linear_335_31)"/>
<path d="M167.661 15.5723H164.358V18.8758H167.661V15.5723Z" fill="url(#paint23_linear_335_31)"/>
<path d="M171.83 15.5723H168.527V18.8758H171.83V15.5723Z" fill="url(#paint24_linear_335_31)"/>
<path d="M158.994 19.696H155.691V22.9996H158.994V19.696Z" fill="url(#paint25_linear_335_31)"/>
<path d="M145.862 7.42737H142.56V10.7309H145.862V7.42737Z" fill="url(#paint26_linear_335_31)"/>
<path d="M139.005 5.75269H135.702V9.05623H139.005V5.75269Z" fill="url(#paint27_linear_335_31)"/>
<path d="M145.918 11.5055H142.615V14.809H145.918V11.5055Z" fill="url(#paint28_linear_335_31)"/>
<defs>
<linearGradient id="paint0_linear_335_31" x1="103.335" y1="19.115" x2="143.562" y2="19.115" gradientUnits="userSpaceOnUse">
<stop offset="0.03" stop-color="#0E8FCF"/>
<stop offset="0.22" stop-color="#2073B8"/>
<stop offset="0.51" stop-color="#394D9A"/>
<stop offset="0.97" stop-color="#E5388B"/>
</linearGradient>
<linearGradient id="paint1_linear_335_31" x1="103.336" y1="19.1264" x2="143.551" y2="19.1264" gradientUnits="userSpaceOnUse">
<stop offset="0.03" stop-color="#0E8FCF"/>
<stop offset="0.22" stop-color="#2073B8"/>
<stop offset="0.51" stop-color="#394D9A"/>
<stop offset="0.97" stop-color="#E5388B"/>
</linearGradient>
<linearGradient id="paint2_linear_335_31" x1="103.334" y1="19.1151" x2="143.56" y2="19.1151" gradientUnits="userSpaceOnUse">
<stop offset="0.03" stop-color="#0E8FCF"/>
<stop offset="0.22" stop-color="#2073B8"/>
<stop offset="0.51" stop-color="#394D9A"/>
<stop offset="0.97" stop-color="#E5388B"/>
</linearGradient>
<linearGradient id="paint3_linear_335_31" x1="103.335" y1="19.1264" x2="143.561" y2="19.1264" gradientUnits="userSpaceOnUse">
<stop offset="0.03" stop-color="#0E8FCF"/>
<stop offset="0.22" stop-color="#2073B8"/>
<stop offset="0.51" stop-color="#394D9A"/>
<stop offset="0.97" stop-color="#E5388B"/>
</linearGradient>
<linearGradient id="paint4_linear_335_31" x1="103.336" y1="36.7607" x2="143.562" y2="36.7607" gradientUnits="userSpaceOnUse">
<stop offset="0.03" stop-color="#0E8FCF"/>
<stop offset="0.22" stop-color="#2073B8"/>
<stop offset="0.51" stop-color="#394D9A"/>
<stop offset="0.97" stop-color="#E5388B"/>
</linearGradient>
<linearGradient id="paint5_linear_335_31" x1="103.335" y1="36.7607" x2="143.561" y2="36.7607" gradientUnits="userSpaceOnUse">
<stop offset="0.03" stop-color="#0E8FCF"/>
<stop offset="0.22" stop-color="#2073B8"/>
<stop offset="0.51" stop-color="#394D9A"/>
<stop offset="0.97" stop-color="#E5388B"/>
</linearGradient>
<linearGradient id="paint6_linear_335_31" x1="103.334" y1="36.7492" x2="143.56" y2="36.7492" gradientUnits="userSpaceOnUse">
<stop offset="0.03" stop-color="#0E8FCF"/>
<stop offset="0.22" stop-color="#2073B8"/>
<stop offset="0.51" stop-color="#394D9A"/>
<stop offset="0.97" stop-color="#E5388B"/>
</linearGradient>
<linearGradient id="paint7_linear_335_31" x1="103.335" y1="36.7492" x2="143.561" y2="36.7492" gradientUnits="userSpaceOnUse">
<stop offset="0.03" stop-color="#0E8FCF"/>
<stop offset="0.22" stop-color="#2073B8"/>
<stop offset="0.51" stop-color="#394D9A"/>
<stop offset="0.97" stop-color="#E5388B"/>
</linearGradient>
<linearGradient id="paint8_linear_335_31" x1="103.335" y1="36.7492" x2="143.562" y2="36.7492" gradientUnits="userSpaceOnUse">
<stop offset="0.03" stop-color="#0E8FCF"/>
<stop offset="0.22" stop-color="#2073B8"/>
<stop offset="0.51" stop-color="#394D9A"/>
<stop offset="0.97" stop-color="#E5388B"/>
</linearGradient>
<linearGradient id="paint9_linear_335_31" x1="103.335" y1="36.7492" x2="143.562" y2="36.7492" gradientUnits="userSpaceOnUse">
<stop offset="0.03" stop-color="#0E8FCF"/>
<stop offset="0.22" stop-color="#2073B8"/>
<stop offset="0.51" stop-color="#394D9A"/>
<stop offset="0.97" stop-color="#E5388B"/>
</linearGradient>
<linearGradient id="paint10_linear_335_31" x1="110.714" y1="1.65177" x2="145.496" y2="1.65177" gradientUnits="userSpaceOnUse">
<stop offset="0.03" stop-color="#0E8FCF"/>
<stop offset="0.22" stop-color="#2073B8"/>
<stop offset="0.51" stop-color="#394D9A"/>
<stop offset="0.97" stop-color="#E5388B"/>
</linearGradient>
<linearGradient id="paint11_linear_335_31" x1="110.715" y1="4.90971" x2="145.498" y2="4.90971" gradientUnits="userSpaceOnUse">
<stop offset="0.03" stop-color="#0E8FCF"/>
<stop offset="0.22" stop-color="#2073B8"/>
<stop offset="0.51" stop-color="#394D9A"/>
<stop offset="0.97" stop-color="#E5388B"/>
</linearGradient>
<linearGradient id="paint12_linear_335_31" x1="110.715" y1="9.07914" x2="145.498" y2="9.07914" gradientUnits="userSpaceOnUse">
<stop offset="0.03" stop-color="#0E8FCF"/>
<stop offset="0.22" stop-color="#2073B8"/>
<stop offset="0.51" stop-color="#394D9A"/>
<stop offset="0.97" stop-color="#E5388B"/>
</linearGradient>
<linearGradient id="paint13_linear_335_31" x1="110.716" y1="13.1573" x2="145.498" y2="13.1573" gradientUnits="userSpaceOnUse">
<stop offset="0.03" stop-color="#0E8FCF"/>
<stop offset="0.22" stop-color="#2073B8"/>
<stop offset="0.51" stop-color="#394D9A"/>
<stop offset="0.97" stop-color="#E5388B"/>
</linearGradient>
<linearGradient id="paint14_linear_335_31" x1="110.716" y1="17.224" x2="145.498" y2="17.224" gradientUnits="userSpaceOnUse">
<stop offset="0.03" stop-color="#0E8FCF"/>
<stop offset="0.22" stop-color="#2073B8"/>
<stop offset="0.51" stop-color="#394D9A"/>
<stop offset="0.97" stop-color="#E5388B"/>
</linearGradient>
<linearGradient id="paint15_linear_335_31" x1="110.716" y1="4.90971" x2="145.498" y2="4.90971" gradientUnits="userSpaceOnUse">
<stop offset="0.03" stop-color="#0E8FCF"/>
<stop offset="0.22" stop-color="#2073B8"/>
<stop offset="0.51" stop-color="#394D9A"/>
<stop offset="0.97" stop-color="#E5388B"/>
</linearGradient>
<linearGradient id="paint16_linear_335_31" x1="110.716" y1="9.07914" x2="145.498" y2="9.07914" gradientUnits="userSpaceOnUse">
<stop offset="0.03" stop-color="#0E8FCF"/>
<stop offset="0.22" stop-color="#2073B8"/>
<stop offset="0.51" stop-color="#394D9A"/>
<stop offset="0.97" stop-color="#E5388B"/>
</linearGradient>
<linearGradient id="paint17_linear_335_31" x1="110.714" y1="17.224" x2="145.497" y2="17.224" gradientUnits="userSpaceOnUse">
<stop offset="0.03" stop-color="#0E8FCF"/>
<stop offset="0.22" stop-color="#2073B8"/>
<stop offset="0.51" stop-color="#394D9A"/>
<stop offset="0.97" stop-color="#E5388B"/>
</linearGradient>
<linearGradient id="paint18_linear_335_31" x1="110.715" y1="9.07914" x2="145.497" y2="9.07914" gradientUnits="userSpaceOnUse">
<stop offset="0.03" stop-color="#0E8FCF"/>
<stop offset="0.22" stop-color="#2073B8"/>
<stop offset="0.51" stop-color="#394D9A"/>
<stop offset="0.97" stop-color="#E5388B"/>
</linearGradient>
<linearGradient id="paint19_linear_335_31" x1="110.714" y1="9.07914" x2="145.496" y2="9.07914" gradientUnits="userSpaceOnUse">
<stop offset="0.03" stop-color="#0E8FCF"/>
<stop offset="0.22" stop-color="#2073B8"/>
<stop offset="0.51" stop-color="#394D9A"/>
<stop offset="0.97" stop-color="#E5388B"/>
</linearGradient>
<linearGradient id="paint20_linear_335_31" x1="110.714" y1="13.1686" x2="145.496" y2="13.1686" gradientUnits="userSpaceOnUse">
<stop offset="0.03" stop-color="#0E8FCF"/>
<stop offset="0.22" stop-color="#2073B8"/>
<stop offset="0.51" stop-color="#394D9A"/>
<stop offset="0.97" stop-color="#E5388B"/>
</linearGradient>
<linearGradient id="paint21_linear_335_31" x1="110.716" y1="17.224" x2="145.498" y2="17.224" gradientUnits="userSpaceOnUse">
<stop offset="0.03" stop-color="#0E8FCF"/>
<stop offset="0.22" stop-color="#2073B8"/>
<stop offset="0.51" stop-color="#394D9A"/>
<stop offset="0.97" stop-color="#E5388B"/>
</linearGradient>
<linearGradient id="paint22_linear_335_31" x1="110.715" y1="17.224" x2="145.497" y2="17.224" gradientUnits="userSpaceOnUse">
<stop offset="0.03" stop-color="#0E8FCF"/>
<stop offset="0.22" stop-color="#2073B8"/>
<stop offset="0.51" stop-color="#394D9A"/>
<stop offset="0.97" stop-color="#E5388B"/>
</linearGradient>
<linearGradient id="paint23_linear_335_31" x1="110.716" y1="17.224" x2="145.498" y2="17.224" gradientUnits="userSpaceOnUse">
<stop offset="0.03" stop-color="#0E8FCF"/>
<stop offset="0.22" stop-color="#2073B8"/>
<stop offset="0.51" stop-color="#394D9A"/>
<stop offset="0.97" stop-color="#E5388B"/>
</linearGradient>
<linearGradient id="paint24_linear_335_31" x1="110.716" y1="17.224" x2="145.499" y2="17.224" gradientUnits="userSpaceOnUse">
<stop offset="0.03" stop-color="#0E8FCF"/>
<stop offset="0.22" stop-color="#2073B8"/>
<stop offset="0.51" stop-color="#394D9A"/>
<stop offset="0.97" stop-color="#E5388B"/>
</linearGradient>
<linearGradient id="paint25_linear_335_31" x1="110.716" y1="21.3478" x2="145.498" y2="21.3478" gradientUnits="userSpaceOnUse">
<stop offset="0.03" stop-color="#0E8FCF"/>
<stop offset="0.22" stop-color="#2073B8"/>
<stop offset="0.51" stop-color="#394D9A"/>
<stop offset="0.97" stop-color="#E5388B"/>
</linearGradient>
<linearGradient id="paint26_linear_335_31" x1="110.716" y1="9.07914" x2="145.498" y2="9.07914" gradientUnits="userSpaceOnUse">
<stop offset="0.03" stop-color="#0E8FCF"/>
<stop offset="0.22" stop-color="#2073B8"/>
<stop offset="0.51" stop-color="#394D9A"/>
<stop offset="0.97" stop-color="#E5388B"/>
</linearGradient>
<linearGradient id="paint27_linear_335_31" x1="110.714" y1="7.40446" x2="145.497" y2="7.40446" gradientUnits="userSpaceOnUse">
<stop offset="0.03" stop-color="#0E8FCF"/>
<stop offset="0.22" stop-color="#2073B8"/>
<stop offset="0.51" stop-color="#394D9A"/>
<stop offset="0.97" stop-color="#E5388B"/>
</linearGradient>
<linearGradient id="paint28_linear_335_31" x1="110.714" y1="13.1573" x2="145.497" y2="13.1573" gradientUnits="userSpaceOnUse">
<stop offset="0.03" stop-color="#0E8FCF"/>
<stop offset="0.22" stop-color="#2073B8"/>
<stop offset="0.51" stop-color="#394D9A"/>
<stop offset="0.97" stop-color="#E5388B"/>
</linearGradient>
</defs>
</svg>
